Fringe S3E20 WEB-DL DD5.1 ENG+NL Subs

Verenigde Staten / Canada ~ 60 minuten ~ geschreven door J.J. Abrams, Alex Kurtzman & Roberto Orci ~ met Anna Torv, Joshua Jackson, Peter Bishop, Lance Reddick, Blair Brown, Jasika Nicole & John Noble.

Het begin van het eind wordt geactiveerd wanneer Walternate een manier vind om verwoesting aan tge richten 'alhier'.

Bestandsformaat: .MKV
Bestandsgrootte: 1,34 GB
Taal: Engels in DD5.1
Ondertitelingen: Engels en Nederlands ~ Nederlands custom door TheThom (in te stellen)
Categorie : Serie
Formaat : NVT
Bron : WEB-DL (vergelijkbaar met HDTV, doch zonder reclame of logo's)
Menu: Nee
Extra's: Nee
Genre : Mysterie ~ Drama ~ Horror
Weblink :  http://www.imdb.com/title/tt1119644/

~~~~~~~~~~~~~~~~~~~~~~
USA / Canada ~ 60 minutes ~ written by J.J. Abrams, Alex Kurtzman & Roberto Orci ~ with Anna Torv, Joshua Jackson, Peter Bishop, Lance Reddick, Blair Brown, Jasika Nicole & John Noble.

The beginning of the end is triggered when Walternate finds a way to wreak havoc “over here."

File Format: .MKV
File size: 1.40 GB
Language: English in DD5.1
Subtitles: English and Dutch ~ Dutch custom by TheThom (selectable)
Category : Series
Format : -
Source : WEB-DL (comparable with HDTV, but without advertisements or logos)
Menu: No
Extras: No
Genre : Drama ~ Mystery ~ Horror
Weblink :  http://www.imdb.com/title/tt1119644/

Video and audio information:
~~~~~~~~~~~~~~~~~~~~~~
ID                               : 1
Format                           : AVC
Format/Info                      : Advanced Video Codec
Format profile                   : High@L3.1
Format settings, CABAC           : No
Format settings, ReFrames        : 2 frames
Codec ID                         : V_MPEG4/ISO/AVC
Duration                         : 43mn 3s
Bit rate                         : 4 016 Kbps
Width                            : 1 280 pixels
Height                           : 720 pixels
Display aspect ratio             : 16:9
Frame rate                       : 23.976 fps
Color space                      : YUV
Chroma subsampling               : 4:2:0
Bit depth                        : 8 bits
Scan type                        : Progressive
Bits/(Pixel*Frame)               : 0.182
Stream size                      : 1.21 GiB (89%)
Title                            : 720p WEB-DL H264
Language                         : English
Color primaries                  : BT.709-5, BT.1361, IEC 61966-2-4, SMPTE RP177
Transfer characteristics         : BT.709-5, BT.1361
Matrix coefficients              : BT.709-5, BT.1361, IEC 61966-2-4 709, SMPTE RP177

Audio
ID                               : 2
Format                           : AC-3
Format/Info                      : Audio Coding 3
Mode extension                   : CM (complete main)
Codec ID                         : A_AC3
Duration                         : 43mn 3s
Bit rate mode                    : Constant
Bit rate                         : 384 Kbps
Channel(s)                       : 6 channels
Channel positions                : Front: L C R, Side: L R, LFE
Sampling rate                    : 48.0 KHz
Bit depth                        : 16 bits
Compression mode                 : Lossy
Stream size                      : 118 MiB (9%)
Title                            : DD5.1 @ 384 Kb/s
Language                         : English


~~~~~~~~~~~~~~~
Hornigold TBS
~~~~~~~~~~~~~~~